<?xml version="1.0" encoding="utf-8"?>
<!-- Generator: Adobe Illustrator 25.2.3, SVG Export Plug-In . SVG Version: 6.00 Build 0)  -->
<svg version="1.1" id="Ebene_1" xmlns="http://www.w3.org/2000/svg" xmlns:xlink="http://www.w3.org/1999/xlink" x="0px" y="0px"
	 viewBox="0 0 160.7 36" style="enable-background:new 0 0 160.7 36;" xml:space="preserve">
<style type="text/css">
	.st0{fill-rule:evenodd;clip-rule:evenodd;fill:#F3722C;}
	.st1{fill:#FFFFFF;}
</style>
<g transform="translate(132.728, 4) scale(0.5283019)">
	<path class="st0" d="M47.8,8.5c-2.2,3.3-4.7,6.5-7.3,9.5c-0.1,0-0.1,0-0.2,0h-6.4c-0.6,0-1.1,0.5-1.1,1.1c0,0.1,0,0.1,0,0.2
		l1.1,6.3c-2.3,2.6-4.8,5-7.4,7.3l-7.2-2c-0.6-0.2-1.1,0.2-1.3,0.7c0,0.2-0.1,0.3,0,0.5l1.1,5.3c0,0.1,0,0.1,0.1,0.1
		c-3.7,2-7.8,4.1-10.7,5.5c8.8-12.2,25.3-32.7,41.8-40C49.6,4.8,48.7,6.7,47.8,8.5z M35.2,20.1h3.6c-1,1.2-2,2.3-3,3.4L35.2,20.1z
		 M20.5,33.3l3.9,1.1c-1.1,0.7-2.2,1.3-3.3,2L20.5,33.3L20.5,33.3z M12.5,23.3c0.1,0,0.2,0,0.2,0H18c0.6,0,1.1-0.5,1.1-1.1v-6.1
		c2.6-2.4,5.3-4.6,8.2-6.7c0.1,0,0.2,0,0.3,0.1h6.4c0.6,0,1.1-0.5,1.1-1.1v0V4.9c2.3-1.2,4.8-1.9,7.3-2.3c1.5-0.2,3-0.3,4.5-0.4
		c-16.2,8.4-31.6,27.6-40,39.4C7.4,36.6,9,28.4,12.5,23.3L12.5,23.3z M17,18.2v3h-2.8C15.1,20.2,16,19.2,17,18.2L17,18.2z M32.9,6
		v1.4h-2.5C31.2,6.9,32,6.4,32.9,6L32.9,6z M53,1.3c0-0.2,0-0.4,0-0.6c-0.2-0.5-0.8-0.8-1.4-0.6c-0.1,0-0.1,0.1-0.2,0.1
		c-1.2-0.2-3.8-0.3-9.3,0.3c-3,0.4-5.9,1.4-8.6,2.8c0,0,0,0,0,0c-8.4,4.2-17,12-21.6,17.2c-6.2,7.2-7.5,22-7.7,24.6
		c-2.4,3.5-3.9,5.9-4.1,6.3c-0.3,0.5-0.1,1.2,0.4,1.4C1,53.1,1.7,53,2,52.5l0,0c0.1-0.1,1.5-2.4,4-6.1c1.9-0.9,13.9-6.5,20-10.6
		c6.7-4.5,21.6-22.8,23.6-26.3c1.3-2.5,2.4-5.1,3.3-7.7C53,1.7,53,1.5,53,1.3L53,1.3z"/>
</g>
<path class="st1" d="M12.8,20.4L12.8,20.4c0,1.6-0.6,2.9-1.8,3.8c-1.2,0.9-2.7,1.4-4.5,1.4l0,0c-1.5,0-2.9-0.4-4.2-1.2l0,0
	c-0.7-0.4-1.2-1-1.6-1.8C0.2,21.8,0,21,0,20l0,0l3-0.1c0,0.9,0.4,1.5,1.1,2c0.7,0.5,1.6,0.7,2.4,0.7l0,0c2,0,3-0.7,3-2.1l0,0
	c0-1.2-0.7-1.8-2-2l0,0l-2.8-0.3c-1.4-0.2-2.5-0.7-3.3-1.5c-0.8-0.8-1.2-1.9-1.2-3.4c0-1.5,0.6-2.7,1.8-3.7s2.6-1.4,4.4-1.4
	c1.8,0,3.2,0.5,4.3,1.4c1.1,0.9,1.6,2.1,1.6,3.5l0,0l-3,0.1c-0.3-1.4-1.2-2.1-2.8-2.1l0,0c-1,0-1.7,0.2-2.3,0.6
	c-0.6,0.4-0.8,0.9-0.8,1.5c0,0.6,0.2,1,0.6,1.3c0.4,0.3,0.9,0.5,1.5,0.6l0,0l2.7,0.3C11.3,15.9,12.8,17.5,12.8,20.4z M21.1,22.8v2.6
	h-1.9c-1.2,0-2.1-0.4-2.7-1.1c-0.6-0.7-0.9-1.5-0.9-2.5l0,0v-7.2h-1.3v-2.4h1.3V9.6h3.1v2.7h2.2v2.4h-2.2v7c0,0.8,0.4,1.1,1.1,1.1
	l0,0H21.1z M31.1,19.2L31.1,19.2V18c0-1.2-0.2-2.1-0.5-2.7c-0.3-0.6-1.1-0.9-2.2-0.9l0,0c-1.8,0-2.6,1.2-2.6,3.5l0,0v1.2
	c0,2.5,0.9,3.8,2.6,3.8l0,0c1.1,0,1.9-0.4,2.2-1.3l0,0C31,21,31.1,20.2,31.1,19.2z M34.2,18.5L34.2,18.5c0,3-0.6,4.9-1.7,6l0,0
	c-0.9,0.9-2.3,1.3-4.1,1.3l0,0c-2.3,0-3.8-0.7-4.6-2l0,0c-0.8-1.2-1.1-3-1.1-5.2l0,0c0-2.1,0.4-3.8,1.1-5l0,0c0.8-1.3,2.4-2,4.5-2
	s3.7,0.6,4.6,1.8C33.8,14.5,34.2,16.2,34.2,18.5z M44,11.8L44,11.8l-0.9,3.1c-0.2-0.1-0.5-0.1-0.8-0.1l0,0c-0.8,0-1.8,0.3-3,1l0,0
	v9.7h-3.1V11.7h2.3l0.7,1.2l3.3-1.4c0.2,0,0.4,0,0.7,0C43.5,11.5,43.8,11.6,44,11.8z M52.8,11.7h3.3l-5.2,15.2
	c-0.2,0.7-0.5,1.2-0.9,1.6l0,0c-0.6,0.6-1.5,1-2.7,1l0,0h-1.5v-2.8h1c0.4,0,0.8-0.1,1-0.2c0.2-0.1,0.4-0.4,0.6-0.9l0,0l0.2-0.7
	l-4.1-13.2h3.3l2.4,9.5L52.8,11.7z M63.8,22.8v2.6h-2c-1.2,0-2.1-0.4-2.7-1.1c-0.6-0.7-0.9-1.5-0.9-2.5l0,0v-7.2h-1.3v-2.4h1.3V9.6
	h3.1v2.7h2.2v2.4h-2.2v7c0,0.8,0.4,1.1,1.1,1.1l0,0H63.8z M76.7,19.3L76.7,19.3h-8c0,1.2,0.2,2.2,0.6,2.7c0.4,0.6,1.2,0.9,2.4,0.9
	l0,0c0.8,0,1.3-0.2,1.7-0.7c0.4-0.5,0.6-1,0.6-1.4l0,0h2.8c0,1.7-0.5,3-1.4,3.8c-0.9,0.8-2.1,1.2-3.6,1.2c-1.5,0-2.7-0.2-3.5-0.6
	l0,0c-1.7-0.9-2.6-3.2-2.6-7l0,0c0-2.3,0.5-3.9,1.5-4.9c1-1.1,2.5-1.6,4.5-1.6l0,0c3.5,0,5.2,1.9,5.2,5.8l0,0
	C76.7,17.7,76.7,18.4,76.7,19.3z M68.8,17.2L68.8,17.2h5.1c0-1.1-0.2-1.8-0.6-2.3c-0.4-0.5-1-0.7-1.8-0.7c-0.8,0-1.5,0.2-2,0.7
	C69,15.4,68.8,16.1,68.8,17.2z M82.6,7.4v18l-3.1,0V7.4H82.6z M88.9,7.4v18l-3.1,0V7.4H88.9z M99.6,11.8L99.6,11.8l-0.9,3.1
	c-0.2-0.1-0.5-0.1-0.8-0.1l0,0c-0.8,0-1.8,0.3-3,1l0,0v9.7h-3.1V11.7h2.3l0.7,1.2l3.3-1.4c0.2,0,0.4,0,0.6,0S99.3,11.6,99.6,11.8z
	 M104.9,22.2c0.2,0.2,0.4,0.8,0.4,1.6s-0.1,1.3-0.4,1.6c-0.2,0.3-0.8,0.4-1.6,0.4s-1.3-0.1-1.6-0.4c-0.3-0.3-0.4-0.8-0.4-1.6
	s0.1-1.3,0.4-1.6c0.3-0.2,0.8-0.4,1.6-0.4S104.7,21.9,104.9,22.2z M108.7,12.2h3.1v13.7c0,1-0.3,1.8-0.9,2.5
	c-0.6,0.7-1.5,1.1-2.7,1.1l0,0h-1.8v-2.6h1.2c0.7,0,1.1-0.4,1.1-1.1l0,0V12.2z M110.3,6.5c0.8,0,1.2,0.1,1.5,0.3
	c0.2,0.2,0.3,0.7,0.3,1.5c0,0.7-0.1,1.2-0.3,1.5c-0.2,0.2-0.7,0.3-1.5,0.3c-0.7,0-1.2-0.1-1.5-0.4s-0.3-0.7-0.3-1.5s0.1-1.2,0.3-1.4
	C109.1,6.6,109.6,6.5,110.3,6.5z M124.7,21.6L124.7,21.6V22c-0.1,1.2-0.6,2.1-1.5,2.7c-0.9,0.6-2.1,0.9-3.4,0.9l0,0
	c-2,0-3.5-0.4-4.3-1.1l0,0c-0.8-0.7-1.1-1.7-1.1-3l0,0v-0.3h2.8c0,0.7,0.2,1.2,0.6,1.5c0.4,0.3,1,0.4,2,0.4l0,0
	c1.3,0,1.9-0.5,1.9-1.4l0,0c0-0.8-0.2-1.3-0.7-1.5l0,0c-0.2-0.1-0.5-0.2-0.8-0.3l0,0l-2.4-0.4c-2.1-0.3-3.2-1.7-3.2-4l0,0
	c0-1.3,0.5-2.3,1.4-3c0.9-0.7,2.1-1.1,3.6-1.1l0,0c3.3,0,4.9,1.4,4.9,4.2l0,0v0.3h-2.7c0-0.8-0.2-1.3-0.6-1.5
	c-0.4-0.3-0.9-0.4-1.5-0.4c-0.7,0-1.2,0.1-1.5,0.4c-0.3,0.3-0.5,0.6-0.5,0.9l0,0c0,0.9,0.4,1.4,1.1,1.6l0,0l2.9,0.5
	C123.7,17.9,124.7,19.3,124.7,21.6z"/>
</svg>
