<svg id="Ebene_1" data-name="Ebene 1" xmlns="http://www.w3.org/2000/svg" viewBox="0 0 28.02 27.96"><path d="M32.68,9.27a53.52,53.52,0,0,1-3.86,5H25.33a.59.59,0,0,0-.58.58V15l.58,3.33a43.18,43.18,0,0,1-3.91,3.86l-3.8-1.06a.57.57,0,0,0-.69.37c0,.11-.05.16,0,.27l.58,2.8c0,.05,0,.05.06.05-2,1.06-4.12,2.17-5.66,2.9C16.56,21.05,25.28,10.22,34,6.36,33.63,7.31,33.15,8.32,32.68,9.27ZM26,15.4h1.9c-.53.63-1.06,1.21-1.58,1.79Zm-7.77,7,2.06.58c-.58.37-1.16.69-1.74,1.06l-.32-1.64ZM14,17.09h2.9a.59.59,0,0,0,.58-.58V13.28a48.14,48.14,0,0,1,4.34-3.54A.17.17,0,0,1,22,9.8h3.39A.59.59,0,0,0,26,9.22h0V7.37a12.35,12.35,0,0,1,3.85-1.22c.8-.1,1.59-.16,2.38-.21-8.56,4.44-16.69,14.58-21.13,20.82.26-2.65,1.11-7,3-9.67Zm2.37-2.7V16H14.92c.48-.53,1-1.06,1.48-1.59ZM24.8,8v.74H23.48A10.63,10.63,0,0,1,24.8,8ZM35.42,5.46V5.15a.58.58,0,0,0-.74-.32s0,0-.1,0A20.6,20.6,0,0,0,29.66,5a13.91,13.91,0,0,0-4.54,1.48h0a42.7,42.7,0,0,0-11.41,9.09c-3.28,3.8-4,11.62-4.07,13-1.27,1.85-2.06,3.12-2.16,3.33a.51.51,0,0,0,.21.74.57.57,0,0,0,.79-.16h0s.79-1.26,2.11-3.22a99.07,99.07,0,0,0,10.57-5.6c3.54-2.38,11.41-12,12.47-13.89a32.12,32.12,0,0,0,1.74-4.07c.05-.05.05-.16.05-.27Z" transform="translate(-7.4 -4.8)" style="fill:#f3722c;fill-rule:evenodd"/></svg>